# xmcd
#
# Track frame offsets:
#	150
#	29787
#	56834
#	83493
#	96602
#	129670
#	143279
#	172505
#	183001
#	215779
#
# Disc length: 3362 seconds
#
# Revision: 1
# Processed by: cddbd v1.5.2PL0 Copyright (c) Steve Scherf et al.
# Submitted via: audiograbber 1.83.01
#
DISCID=850d200a
DTITLE=Uneven structure - Februus
DYEAR=2011
DGENRE=Metal
TTITLE0=Awaken
TTITLE1=Frost
TTITLE2=Hail
TTITLE3=Exmersion
TTITLE4=Buds
TTITLE5=Awe
TTITLE6=Quittance
TTITLE7=Limbo
TTITLE8=Plenitude
TTITLE9=Finale
EXTD=
EXTT0=
EXTT1=
EXTT2=
EXTT3=
EXTT4=
EXTT5=
EXTT6=
EXTT7=
EXTT8=
EXTT9=
PLAYORDER=
